<svg xmlns="http://www.w3.org/2000/svg" width="1024" height="1024" viewBox="0 0 1024 1024" role="img" aria-labelledby="title desc">
  <title id="title">Apnea Signal Mark</title>
  <desc id="desc">Blue rounded-square icon with wave and fin symbol.</desc>
  <defs>
    <linearGradient id="bg" x1="0" y1="0" x2="1" y2="1">
      <stop offset="0%" stop-color="#08345d"/>
      <stop offset="52%" stop-color="#1272b6"/>
      <stop offset="100%" stop-color="#7dd7f0"/>
    </linearGradient>
    <linearGradient id="wave" x1="0" y1="0" x2="1" y2="0">
      <stop offset="0%" stop-color="#ffffff"/>
      <stop offset="100%" stop-color="#dff6ff"/>
    </linearGradient>
  </defs>

  <rect x="64" y="64" width="896" height="896" rx="172" fill="url(#bg)"/>

  <g transform="translate(512 512)">
    <circle r="232" fill="#ffffff" fill-opacity="0.12"/>
    <circle r="220" fill="none" stroke="#ffffff" stroke-opacity="0.88" stroke-width="20"/>

    <path d="M -196 68 C -124 -4 -66 20 -16 66 C 24 102 66 100 112 72 C 148 50 178 44 206 54"
      fill="none" stroke="url(#wave)" stroke-width="48" stroke-linecap="round"/>

    <path d="M 74 -58 C 94 -132 164 -168 234 -146 C 212 -102 164 -60 96 -46 Z"
      fill="#ffffff" fill-opacity="0.95"/>

    <circle cx="-134" cy="-132" r="16" fill="#ffffff" fill-opacity="0.82"/>
    <circle cx="-96" cy="-172" r="10" fill="#ffffff" fill-opacity="0.68"/>
    <circle cx="-66" cy="-204" r="7" fill="#ffffff" fill-opacity="0.56"/>
  </g>
</svg>
